<svg version="1.1" id="Layer_1" xmlns="http://www.w3.org/2000/svg" xmlns:xlink="http://www.w3.org/1999/xlink" x="0px" y="0px"
	 width="100%" viewBox="0 0 496 496" enable-background="new 0 0 496 496" xml:space="preserve">
<path fill="#000000" opacity="1.000000" stroke="none" 
	d="
M301.072571,34.237305 
	C306.054108,32.305862 304.393982,35.286709 303.774323,37.560421 
	C305.345184,38.138279 306.579224,35.219139 308.182739,37.046894 
	C309.325928,38.349972 307.790558,39.516907 307.791565,40.853611 
	C309.198853,42.012184 310.520905,39.646362 310.840363,39.898315 
	C313.657715,42.022972 311.487427,43.396793 311.936615,44.752396 
	C313.352631,45.191910 314.650940,43.039417 316.081177,44.594643 
	C317.110657,46.357090 314.873901,47.149101 314.879944,48.713032 
	C316.194122,50.007950 317.537292,47.388496 319.264740,49.085278 
	C320.494110,50.511536 317.573608,51.422806 317.922180,53.083939 
	C319.388733,54.020096 321.063202,51.494347 322.507721,53.367336 
	C323.328918,55.083565 320.825439,55.651802 320.942932,57.110767 
	C322.286255,58.504757 324.012909,56.393101 325.225952,57.823151 
	C326.012299,59.599331 323.618683,60.238842 323.797424,61.871231 
	C325.091125,63.272282 326.552277,60.784752 327.978607,62.112400 
	C329.183716,64.068665 326.129364,64.523224 326.273041,66.210350 
	C327.250641,67.537811 328.905457,65.640671 329.962738,67.054100 
	C330.808472,68.945686 328.201477,69.112518 327.993286,70.681999 
	C328.871979,72.271797 331.405304,70.202560 332.168304,72.692505 
	C332.520569,74.531502 329.787415,74.470535 329.379425,76.109642 
	C330.165009,77.814667 332.354645,76.256950 333.258759,77.864113 
	C333.692810,79.562767 331.601196,79.634277 331.119110,80.881287 
	C331.619568,82.449257 333.637848,81.480537 334.848938,83.636467 
	C335.079102,84.357742 331.060364,86.845917 335.288422,87.533936 
	C335.259308,89.528397 332.908630,89.129242 332.800629,90.795105 
	C333.250458,92.624718 336.140259,91.487144 336.434143,93.959236 
	C336.321686,96.026207 333.501892,94.671677 332.747131,96.226532 
	C332.263611,98.139244 334.749146,97.713570 334.984711,99.063751 
	C334.989258,100.419205 332.868134,100.167198 333.048309,101.737564 
	C333.696442,103.354858 336.415833,102.322472 336.776367,104.447533 
	C336.570007,106.581306 334.489746,105.910889 333.344818,106.622337 
	C333.128906,108.216866 335.787018,107.891838 335.214844,109.727608 
	C334.766541,111.166054 332.586639,110.442940 332.440247,112.178818 
	C334.736267,113.499886 336.635468,112.375801 338.488861,111.280540 
	C344.959167,107.456886 351.158203,103.264114 356.505005,97.917793 
	C360.124725,94.298409 362.173859,94.398689 364.760071,98.567078 
	C377.400726,118.940887 389.943665,139.375443 402.624298,159.724243 
	C404.306610,162.423904 403.652222,164.165146 401.664185,166.271423 
	C395.134918,173.188873 389.118988,180.539322 384.338379,188.802002 
	C374.019562,206.636703 375.352783,225.206070 381.381622,243.868790 
	C383.472717,250.341827 386.405304,256.561798 389.210541,262.781403 
	C395.002686,275.623566 398.832031,288.895874 399.712494,303.055267 
	C401.347412,329.348511 391.429688,350.337372 371.366150,366.962616 
	C356.196075,379.532959 338.544403,386.806427 319.904175,392.550385 
	C301.333344,398.272919 282.729980,404.159454 265.834259,414.224213 
	C261.986755,416.516144 259.077606,419.580078 256.569794,423.145752 
	C255.096069,425.241119 253.471954,425.743286 251.786804,423.549500 
	C242.280411,411.174072 227.892700,406.968658 214.340836,401.729065 
	C200.869156,396.520508 186.799652,392.874847 173.244049,387.862976 
	C150.921234,379.609589 131.308762,367.255249 118.209671,346.748993 
	C109.111855,332.506592 106.797913,316.590759 108.136604,299.781525 
	C109.727806,279.801453 119.050446,262.612518 126.421341,244.651596 
	C132.394897,230.095642 134.887268,215.098770 128.795166,199.929764 
	C124.163345,188.396805 117.261017,178.199234 108.679047,169.180878 
	C103.122124,163.341385 102.995514,163.164291 107.162369,156.419205 
	C119.066383,137.149612 131.031342,117.917549 143.017868,98.699135 
	C145.975616,93.956863 147.352051,93.850304 151.441757,97.693428 
	C156.437210,102.387680 161.836700,106.569908 167.710220,110.090950 
	C169.945023,111.430656 172.186783,113.059929 175.579483,112.767982 
	C174.734467,109.977074 177.093887,106.311890 172.529648,105.275116 
	C172.171326,102.838234 174.959183,103.445702 175.188843,101.833252 
	C175.213593,100.404991 173.456680,100.426003 172.989594,99.224976 
	C173.779221,98.398193 174.536987,97.604767 175.201843,96.908607 
	C174.680115,94.803406 172.313522,95.804848 171.613327,94.245811 
	C171.596970,91.944946 174.146210,93.314896 175.059540,91.738907 
	C172.603745,89.635582 174.125244,88.069611 176.184219,86.987679 
	C175.717209,84.896790 173.268890,85.504776 172.885422,83.726105 
	C173.546341,81.262283 175.907532,83.397240 177.126205,82.126274 
	C177.914169,80.498436 175.424210,79.812279 175.876221,77.961166 
	C176.758636,77.674431 177.791489,77.338814 178.754059,77.026039 
	C179.248749,74.843742 176.587799,74.958717 176.490753,73.182533 
	C176.810608,71.315689 178.794235,72.841942 179.660522,72.025909 
	C180.014038,70.389000 177.699112,70.092430 178.174332,68.328873 
	C178.777206,66.805962 180.521790,67.954773 181.937820,67.011902 
	C181.026108,64.849846 180.251999,62.340141 184.012421,62.469574 
	C184.613586,60.603775 182.671738,59.933464 182.858414,58.474133 
	C183.886261,56.640480 185.668365,59.048996 186.868042,57.769333 
	C187.517944,55.880886 184.436569,55.500340 185.060684,53.582249 
	C186.191208,52.096035 187.534973,53.649834 188.789902,53.328133 
	C190.222031,52.010681 187.606949,51.059120 188.439713,49.794907 
	C189.641006,47.991653 191.207367,50.185211 191.802994,49.841045 
	C195.354630,41.485188 204.236404,38.812077 208.850449,31.112169 
	C209.396896,30.736029 210.501282,32.217815 211.677505,32.190693 
	C213.254288,31.175194 211.341568,29.514126 212.474564,28.612385 
	C213.928604,27.305365 214.893143,29.544609 216.526398,28.819187 
	C214.481186,23.522827 222.517792,27.193716 221.505630,22.917276 
	C223.873199,22.287231 224.194824,24.496389 225.625839,24.990271 
	C227.211258,24.199015 224.722610,21.851902 226.148407,21.571262 
	C228.777924,20.757267 229.122726,23.303175 230.776749,23.158018 
	C232.051727,22.141306 230.266510,19.992373 231.466888,19.593197 
	C234.225464,18.324556 234.357040,21.089039 235.883453,21.111443 
	C237.262680,20.464521 235.695526,18.695286 237.125183,18.061962 
	C239.040848,17.176418 239.389435,19.498053 241.005051,20.023886 
	C242.402832,17.195074 244.119339,15.143188 246.034744,20.625719 
	C247.647568,15.411848 249.385162,18.150724 250.908569,19.764578 
	C252.611343,18.679583 251.454453,15.564045 254.114029,15.712339 
	C256.116089,15.823973 255.956619,17.756315 256.500946,19.434855 
	C257.275787,18.489464 257.932190,17.688566 258.482147,17.017572 
	C260.546204,17.180317 259.812164,19.381979 261.411743,20.037680 
	C262.254913,19.002598 263.146606,17.907948 263.978119,16.887194 
	C266.344482,17.055996 265.627808,19.213589 266.416565,20.321045 
	C267.562439,19.525406 267.770233,17.673969 269.243530,18.024574 
	C271.302582,18.623278 270.519440,20.830378 271.900482,21.667162 
	C273.276947,20.904503 273.286346,18.278305 275.522858,18.880186 
	C277.527802,19.419752 276.381317,21.451723 277.133087,22.891424 
	C279.300873,20.250801 281.343536,18.648460 281.895172,24.037802 
	C283.915619,23.449068 287.553467,19.196173 286.769653,25.762337 
	C288.405914,26.237610 289.027710,23.490742 290.847778,24.771826 
	C292.148987,25.960442 290.667175,27.518797 291.128906,28.976847 
	C292.755310,29.391527 293.423431,26.235374 295.345703,27.797031 
	C296.727203,28.919382 295.454407,30.289137 295.720062,31.556171 
	C297.166229,32.300579 297.848511,29.953991 299.260010,30.676128 
	C301.240723,31.688837 298.988617,33.448284 299.963348,34.635662 
	C300.032043,34.719330 300.288055,34.693119 300.439514,34.652679 
	C300.593445,34.611568 300.725739,34.489536 301.072571,34.237305 
M178.860016,204.239151 
	C177.808411,200.945862 177.062912,197.794754 180.759537,195.428635 
	C181.793945,194.766541 182.799789,193.489792 181.695435,192.018341 
	C180.412003,190.308304 180.987122,188.612671 181.402481,186.794998 
	C181.795776,185.073807 182.323242,183.176727 180.475815,180.867661 
	C180.224396,186.813004 177.992065,191.342010 175.810287,195.769608 
	C173.588531,200.278320 173.975357,203.292465 179.230179,205.685486 
	C180.233994,209.463333 183.761490,212.477219 182.692780,216.865845 
	C182.337845,218.323303 182.324173,219.513031 183.897980,220.179794 
	C185.330841,220.786819 186.360168,220.007843 187.537369,219.272797 
	C191.491913,216.803528 192.885422,212.847183 194.228638,208.723053 
	C194.849960,206.815384 193.179840,203.137833 196.874008,203.376358 
	C199.998703,203.578094 198.906876,207.012238 199.576782,209.070084 
	C199.639496,209.262772 200.078079,209.333115 200.408371,209.492142 
	C202.064041,207.142075 201.468597,204.793594 200.454361,202.429337 
	C197.525131,195.601059 193.205750,189.288742 192.765442,181.532776 
	C192.705780,180.481506 192.023102,179.650177 190.881836,179.509399 
	C189.660141,179.358704 188.808853,180.169220 188.856293,181.204987 
	C189.051590,185.470291 187.342056,190.143829 191.969116,193.440216 
	C198.055862,197.776474 193.937790,201.560715 191.420120,205.894989 
	C189.313950,209.520844 186.599472,207.951187 184.050537,208.000259 
	C181.914673,208.041367 180.658554,206.057739 178.860016,204.239151 
M209.489609,261.969025 
	C183.495987,261.966614 157.501877,262.043213 131.509247,261.880676 
	C127.377907,261.854828 125.081779,263.209503 123.602585,267.067139 
	C120.441460,275.311188 117.511887,283.573822 115.957436,292.319641 
	C111.490891,317.449890 116.571571,339.733459 135.647186,357.611877 
	C149.756958,370.836151 166.558563,379.230927 185.133759,384.607361 
	C202.707001,389.693817 219.979294,395.755249 236.494766,403.808533 
	C241.947433,406.467377 247.083817,409.594421 252.271423,413.614838 
	C252.497147,412.135284 252.678299,411.501038 252.678619,410.866699 
	C252.696350,375.208679 252.703201,339.550690 252.697235,303.892670 
	C252.696564,299.905701 251.271896,296.546631 248.668304,293.440247 
	C242.788528,286.425018 236.389328,279.673767 231.631454,271.935852 
	C226.449860,263.508789 219.817017,260.450806 209.489609,261.969025 
M354.153076,262.027985 
	C334.001434,261.605164 313.838135,262.740021 293.692505,261.590881 
	C287.115845,261.215759 282.021362,263.053802 278.297913,269.170929 
	C273.121185,277.675598 265.982513,284.815948 260.444519,293.136658 
	C258.980896,295.335724 258.014130,297.208496 258.018066,299.874847 
	C258.068878,334.207062 258.025024,368.539398 258.005463,402.871704 
	C258.004028,405.424225 258.005249,407.976715 258.005249,411.049072 
	C260.754852,409.368225 262.522125,408.156067 264.403137,407.158386 
	C283.164032,397.207642 303.199249,390.504944 323.350891,384.104248 
	C350.649414,375.433594 374.971100,362.787506 387.788208,335.132904 
	C392.180084,325.656799 394.004211,315.543091 393.375549,305.120850 
	C392.641541,292.951874 389.673431,281.213623 385.150055,269.937805 
	C383.501770,265.828949 381.947083,261.247955 375.524292,261.823334 
	C368.752716,262.429932 361.889099,262.009766 354.153076,262.027985 
M373.642365,124.825294 
	C370.429291,119.572632 367.161591,114.352287 364.026062,109.053734 
	C362.447388,106.386078 360.890198,106.145714 358.507629,108.204109 
	C348.240295,117.074524 335.990662,122.326202 323.346832,126.602150 
	C319.455078,127.918282 317.328522,130.220886 315.467438,133.523621 
	C304.221191,153.481873 287.049316,165.235092 264.648468,169.157364 
	C259.758972,170.013489 258.137878,172.120453 258.170654,176.665421 
	C258.266754,189.985092 258.235504,203.305740 258.230530,216.626007 
	C258.229706,218.844864 258.612366,220.835052 260.070404,222.671326 
	C267.208618,231.661346 274.351562,240.650848 281.292938,249.792313 
	C283.948792,253.289932 287.022614,254.670044 291.454346,254.641891 
	C315.408997,254.489777 339.365479,254.646759 363.321198,254.612289 
	C368.033813,254.605499 372.745941,254.226166 378.240173,253.984207 
	C375.704132,248.215607 374.120422,243.015762 372.922821,237.685150 
	C369.178589,221.018677 369.556244,204.699982 376.476624,188.816162 
	C380.368042,179.884476 385.385498,171.718857 392.405640,164.888428 
	C395.106628,162.260452 395.829651,160.027924 393.350983,156.340805 
	C386.576691,146.263672 380.405029,135.781403 373.642365,124.825294 
M194.641083,78.177460 
	C194.274734,79.458557 193.923203,80.744102 193.539886,82.020103 
	C183.763290,114.565071 203.007294,150.264191 235.716675,159.425934 
	C279.989716,171.826599 320.378357,135.556213 315.971710,93.459129 
	C312.383820,59.183102 281.663422,31.346285 242.647324,37.817055 
	C219.763123,41.612366 203.686890,55.635712 194.641083,78.177460 
M167.217926,180.682907 
	C153.340286,190.036484 147.923767,206.463638 152.062775,220.930573 
	C158.316238,242.788086 181.294312,254.048569 202.932449,244.928787 
	C217.268188,238.886719 225.552856,225.072693 224.909683,208.026443 
	C224.396133,194.415359 213.382416,180.165161 200.049805,175.933517 
	C198.262726,175.366318 196.285446,174.377991 194.682617,176.862869 
	C196.247742,178.901886 198.519867,179.619751 200.579605,180.464325 
	C209.931503,184.298813 216.231522,190.932663 219.301147,200.547745 
	C220.005692,202.754547 221.064316,205.186752 218.470871,207.655975 
	C215.275040,202.810623 214.723679,197.000488 210.994980,192.853882 
	C207.383408,188.837555 203.589462,185.206390 197.269409,184.009171 
	C198.099869,189.926132 200.288330,194.186707 202.186935,198.536011 
	C206.525879,208.475632 202.258850,219.740234 192.898224,222.978790 
	C185.233002,225.630753 179.724075,224.216736 174.508591,218.258514 
	C170.062531,213.179352 168.730804,204.122238 171.730530,198.380707 
	C173.920624,194.188797 175.849533,189.941818 176.900436,184.439011 
	C173.237137,186.029282 170.420471,187.212433 168.118317,189.433777 
	C159.739136,197.518784 156.645691,207.444199 159.525192,218.541855 
	C162.366425,229.491943 170.083206,236.353958 180.903763,239.569000 
	C183.260010,240.269104 185.605194,240.715012 187.125031,243.738922 
	C183.036575,243.702179 179.613190,243.541687 176.342941,242.253281 
	C162.824829,236.927505 155.671768,226.691559 155.121307,212.474335 
	C154.580994,198.518906 160.551178,187.704636 173.414169,181.267899 
	C175.403198,180.272537 177.866592,179.784500 178.409409,176.378311 
	C174.076263,176.163742 171.000763,178.378510 167.217926,180.682907 
M237.424484,270.113892 
	C242.700302,277.082031 247.906189,284.109375 253.897308,290.439850 
	C254.785797,289.891937 255.322418,289.726715 255.603180,289.363678 
	C263.228455,279.503143 270.799744,269.600739 278.453949,259.762817 
	C280.038208,257.726532 279.392853,256.303680 277.972839,254.518509 
	C270.728149,245.410706 263.612732,236.200211 256.415680,227.054245 
	C255.626724,226.051636 254.872894,224.806198 252.704910,225.091843 
	C247.355331,231.999313 241.688522,239.142624 236.211121,246.428314 
	C227.271408,258.319275 227.323517,258.358459 237.424484,270.113892 
z"/>
<path fill="#000000" opacity="1.000000" stroke="none" 
	d="
M443.255890,403.782654 
	C444.659668,406.277740 445.979340,408.402588 447.151550,410.605896 
	C450.562256,417.016754 449.964600,418.111389 442.850281,418.202789 
	C435.520966,418.296936 428.189728,418.252655 420.859344,418.255463 
	C414.075928,418.258026 414.120087,418.250977 413.986145,425.245575 
	C413.881073,430.733246 413.992615,436.213013 413.450256,441.710205 
	C413.044952,445.818024 411.047089,447.266632 407.342346,447.279266 
	C397.024200,447.314453 386.699738,447.559204 376.390625,447.267029 
	C371.614746,447.131653 369.730774,448.647797 370.007477,453.472595 
	C370.312256,458.786407 370.200592,464.128967 370.140167,469.457550 
	C370.072083,475.458466 369.169617,476.336060 363.071686,476.333893 
	C300.764984,476.311707 238.458298,476.267273 176.151596,476.229828 
	C165.655777,476.223511 155.159409,476.282349 144.664337,476.191284 
	C139.037643,476.142487 137.891769,474.940643 137.826096,469.432922 
	C137.760559,463.935852 137.573013,458.424500 137.877441,452.943756 
	C138.117004,448.630554 136.753220,447.038300 132.257889,447.183014 
	C122.110878,447.509613 111.947899,447.403748 101.791878,447.362213 
	C95.945404,447.338287 94.155502,445.454773 94.038940,439.513977 
	C93.940918,434.517487 93.560623,429.490234 93.963554,424.530090 
	C94.389297,419.289001 92.344040,417.929749 87.395653,418.165375 
	C79.750496,418.529327 72.071587,418.322205 64.410645,418.171600 
	C58.531784,418.056061 57.613956,416.290039 60.418777,411.097504 
	C60.497955,410.950958 60.546631,410.777588 60.655472,410.658844 
	C69.349426,401.174622 68.975006,391.776215 60.628460,382.238922 
	C59.436111,380.876495 57.771500,379.007019 58.822342,376.847839 
	C60.001575,374.424835 62.397079,375.685547 64.238129,375.685333 
	C84.562630,375.682800 104.887215,375.752441 125.211601,375.842102 
	C132.073227,375.872375 133.024582,376.870728 133.049240,383.629242 
	C133.068680,388.958893 133.189972,394.290649 133.075897,399.617432 
	C132.994507,403.417999 134.479446,404.961456 138.412628,404.870636 
	C146.069916,404.693878 153.738556,404.816071 161.398422,404.991974 
	C170.737946,405.206421 171.300018,405.874298 171.279297,414.994049 
	C171.270584,418.825378 171.574219,422.672058 171.321426,426.484314 
	C171.037430,430.767426 172.920288,431.907623 176.922501,431.884583 
	C198.913284,431.757965 220.905212,431.839264 242.896744,431.829773 
	C271.718475,431.817352 300.540741,431.692291 329.361359,431.858398 
	C334.089264,431.885651 336.538055,430.980103 336.233551,425.649109 
	C335.978485,421.184113 336.800293,416.662628 336.622681,412.186890 
	C336.425323,407.211975 338.703308,405.113892 343.380402,405.059418 
	C351.542450,404.964325 359.704773,404.879425 367.867188,404.826233 
	C374.891571,404.780457 374.623474,404.786041 375.042542,398.026489 
	C375.373077,392.694733 375.041168,387.409149 374.974854,382.102844 
	C374.921661,377.847626 376.733978,375.756836 381.292328,375.767426 
	C402.781677,375.817444 424.271454,375.670319 445.761139,375.630737 
	C449.251007,375.624298 450.394653,377.132629 448.478790,380.350311 
	C446.691956,383.351288 445.248474,386.615021 443.109863,389.335480 
	C439.294403,394.188873 438.876617,398.739655 443.255890,403.782654 
M160.502472,470.712341 
	C185.658905,470.708832 210.815353,470.713776 235.971786,470.699921 
	C277.449860,470.677094 318.928009,470.597809 360.405853,470.684174 
	C364.344086,470.692352 365.416046,469.711517 365.221405,465.593811 
	C364.885010,458.476257 365.176239,451.286072 365.798584,444.178406 
	C366.402344,437.282501 366.707123,437.277008 359.739288,437.273773 
	C311.597656,437.251404 263.456024,437.239075 215.314377,437.208893 
	C193.157516,437.195007 171.000687,437.142609 148.843842,437.123077 
	C145.969269,437.120544 142.999451,436.858612 143.083847,441.261505 
	C143.246689,449.755493 143.288757,458.253845 143.220917,466.749115 
	C143.195908,469.882751 144.646515,470.801941 147.509308,470.718842 
	C151.504150,470.602814 155.505249,470.702118 160.502472,470.712341 
M358.528564,410.123505 
	C354.093933,410.123505 349.659332,410.123505 345.223267,410.123505 
	C344.943146,411.702393 346.148834,412.323669 346.936249,413.045898 
	C352.332855,417.995758 357.816467,422.850677 363.224091,427.788727 
	C366.159454,430.469238 369.578979,432.958923 368.995270,437.665588 
	C368.480743,441.814392 370.526886,442.762451 374.258240,442.695312 
	C383.752441,442.524475 393.254120,442.538483 402.748260,442.718262 
	C406.369812,442.786835 407.876770,441.570129 407.825836,437.851440 
	C407.723206,430.356628 407.787781,422.853729 408.030334,415.362152 
	C408.173920,410.927094 406.623962,409.114807 401.947510,409.271973 
	C387.811127,409.747162 373.662750,409.866119 358.528564,410.123505 
M109.798874,409.349365 
	C108.633255,409.360809 107.466888,409.349182 106.302147,409.387512 
	C99.364441,409.615692 98.659752,410.117554 99.214867,416.889313 
	C99.800682,424.035339 100.146088,431.177917 100.106857,438.335724 
	C100.089226,441.554108 101.382965,442.735504 104.585327,442.698853 
	C114.242271,442.588348 123.902290,442.628143 133.559570,442.741150 
	C136.416504,442.774567 137.963242,441.928528 137.898392,438.808960 
	C137.816483,434.869415 139.725891,431.951141 142.662033,429.366272 
	C148.283508,424.417419 153.709320,419.244263 159.152695,414.096924 
	C160.153778,413.150269 161.740616,412.470428 161.499832,410.032715 
	C144.548264,410.819183 127.667336,408.949707 109.798874,409.349365 
M408.500244,380.277252 
	C400.094543,380.277252 391.688873,380.277252 381.928772,380.277252 
	C388.055878,387.029663 394.365082,391.364014 399.784302,396.622772 
	C404.634979,401.329834 412.271088,403.560181 413.649078,411.546173 
	C413.796265,412.399170 414.852356,412.670563 415.704498,412.672638 
	C424.091461,412.693237 432.478546,412.685089 441.471466,412.685089 
	C439.483429,409.540436 437.819519,406.514923 435.777405,403.770813 
	C432.727448,399.672333 432.483521,396.004486 435.479675,391.539856 
	C437.659668,388.291351 440.558380,385.055664 440.744537,380.275696 
	C430.105652,380.275696 419.802979,380.275696 408.500244,380.277252 
M90.499832,380.260406 
	C82.626556,380.260406 74.753281,380.260406 65.906441,380.260406 
	C68.697456,385.294952 70.776169,389.213745 73.016991,393.037537 
	C75.116325,396.619965 74.857140,399.825470 72.401711,403.203247 
	C70.224457,406.198364 67.958496,409.224152 66.658211,412.845306 
	C72.621361,412.845306 78.238800,412.849762 83.856224,412.843964 
	C88.991386,412.838684 94.808441,414.275085 96.032806,406.498291 
	C96.196716,405.457245 97.790901,404.585663 98.813744,403.746521 
	C101.384010,401.637756 104.063347,399.659546 106.596558,397.508453 
	C112.839470,392.207092 119.024849,386.838013 125.233368,381.496185 
	C125.058464,381.085052 124.883568,380.673889 124.708672,380.262756 
	C113.639038,380.262756 102.569412,380.262756 90.499832,380.260406 
z"/>
<path fill="#000000" opacity="1.000000" stroke="none" 
	d="
M216.951706,364.637421 
	C210.424835,355.417664 208.133072,344.645935 203.557602,334.904480 
	C201.878342,331.329254 200.847504,327.444305 197.270798,323.315674 
	C197.270798,331.138916 197.247314,337.847473 197.276627,344.555817 
	C197.315094,353.360809 197.407700,362.165497 197.443924,370.970490 
	C197.449371,372.299103 197.307602,373.631683 197.176025,374.956696 
	C197.007080,376.657959 196.735474,378.640747 194.616776,378.619873 
	C192.492172,378.598877 192.224930,376.550110 192.119812,374.894867 
	C191.551117,365.940552 190.768021,357.010559 190.629364,348.015289 
	C190.492828,339.156525 189.383560,330.312744 188.635117,320.607086 
	C185.849335,323.270355 185.377579,326.096405 184.447784,328.631378 
	C179.984146,340.800873 175.621872,353.007629 171.141388,365.170868 
	C170.415741,367.140839 169.504272,369.843048 166.709061,368.594727 
	C164.255905,367.499115 164.751251,364.980255 165.764893,362.904083 
	C172.454010,349.203125 175.317398,334.254730 179.815247,319.841400 
	C180.409225,317.937988 180.800415,316.023529 181.859741,314.263306 
	C183.387634,311.724487 183.403931,308.900848 181.104309,306.978180 
	C177.862839,304.268036 178.291534,301.707458 180.578201,298.971008 
	C180.076035,297.866974 179.159943,298.020752 178.389725,297.860565 
	C176.386063,297.443787 174.942368,296.397125 175.015121,294.198792 
	C175.084854,292.092346 176.583099,291.043427 178.413757,290.342743 
	C183.845444,288.263794 189.625854,288.334259 195.171707,288.680206 
	C199.067139,288.923218 202.870438,290.247040 206.949585,289.585114 
	C209.213394,289.217743 210.716919,290.793793 211.000351,293.092621 
	C211.286926,295.417053 210.130386,296.864105 207.865097,297.487610 
	C206.799805,297.780823 205.486526,297.076691 204.651398,298.275696 
	C207.622314,304.628418 207.094650,305.651001 198.042450,311.117249 
	C205.740753,322.850372 209.886963,336.088196 214.485153,349.174133 
	C216.067200,353.676453 218.337616,357.947083 219.381744,362.669159 
	C219.635941,363.818665 220.159714,365.045898 219.002258,365.872498 
	C218.103165,366.514587 217.528107,365.671570 216.951706,364.637421 
z"/>
<path fill="#000000" opacity="1.000000" stroke="none" 
	d="
M352.931030,312.389343 
	C343.535980,317.950714 335.294403,324.619385 327.112640,331.340332 
	C325.433472,332.719727 321.660400,333.338440 323.133087,336.739502 
	C324.549042,340.009674 326.473480,343.022186 330.573975,343.956879 
	C335.650391,345.114014 340.032959,347.500092 341.012573,353.294006 
	C341.833282,358.148010 339.890991,359.700958 335.131439,358.248505 
	C334.360168,358.013123 333.631256,357.460266 332.703278,358.135681 
	C331.418243,360.322418 333.434052,361.215942 334.528839,362.564606 
	C336.338867,364.794342 335.809387,366.422424 333.124207,367.559082 
	C326.627777,370.308960 318.599152,365.760132 317.658356,358.719757 
	C316.635651,351.066742 316.635651,351.066742 310.004272,344.329376 
	C303.044067,349.408539 295.899658,354.429138 288.975311,359.736847 
	C283.546967,363.897827 281.307892,363.717987 277.409973,358.046967 
	C272.087646,350.303650 272.094574,350.313660 280.335175,344.574646 
	C285.646423,340.875732 290.785248,336.902130 296.281860,333.505554 
	C300.167450,331.104523 300.323761,328.763550 297.680298,325.482056 
	C292.751282,319.363464 288.937134,312.484467 281.371521,308.535889 
	C275.520386,305.482147 275.216583,296.223785 280.327179,290.872528 
	C283.389221,287.666321 286.307373,283.460205 291.925720,284.241974 
	C299.749298,285.330566 303.283600,289.213104 302.028320,298.312439 
	C301.166870,304.556915 302.796906,308.972015 306.394287,313.713654 
	C312.718262,322.049194 312.484772,322.236115 321.266022,316.404602 
	C327.911072,311.991699 334.467682,307.439087 341.219086,303.196014 
	C343.864227,301.533630 344.079498,299.766632 342.636475,297.421844 
	C340.810547,294.454956 338.732483,291.633667 337.049652,288.591156 
	C335.527039,285.838318 336.489197,283.846069 339.760895,284.076477 
	C343.051025,284.308228 346.364746,284.914368 349.546326,285.795959 
	C353.404358,286.865021 356.681335,288.597534 359.021698,292.438141 
	C361.841583,297.065704 365.679626,301.080414 369.145874,305.303833 
	C371.503448,308.176453 372.739960,310.857117 369.313110,313.926331 
	C363.242859,319.362946 361.514130,319.760956 357.556976,316.415192 
	C356.052917,315.143494 355.464630,312.913147 352.931030,312.389343 
M362.078064,303.409882 
	C359.471130,300.164520 356.890381,296.897644 354.250000,293.679718 
	C351.467010,290.287994 347.948578,289.316193 343.709534,290.394989 
	C344.052765,292.621490 345.589203,293.800415 346.609222,295.277222 
	C350.382935,300.740997 350.099335,302.542603 344.671722,306.236755 
	C339.304169,309.890045 333.919037,313.517548 328.542603,317.157837 
	C313.248718,327.513092 297.951019,337.862762 282.666077,348.231232 
	C280.221771,349.889313 277.969635,351.359680 280.697327,354.922119 
	C283.180664,358.165466 285.061188,357.329437 287.681824,355.332367 
	C306.872894,340.707977 326.145660,326.190918 345.357391,311.593536 
	C352.876190,305.880646 352.861267,305.796783 359.709717,311.880585 
	C360.951416,312.983643 361.995331,313.842255 363.575836,312.624054 
	C365.112854,311.439392 366.456238,310.034637 365.456635,307.993317 
	C364.739014,306.527924 363.519348,305.308380 362.078064,303.409882 
M289.298065,300.750153 
	C286.717590,303.902344 284.324951,298.451874 281.545807,300.673096 
	C281.621918,303.986572 283.925018,305.641266 286.574493,306.648712 
	C290.375092,308.093811 292.815216,310.760315 294.936646,314.078705 
	C297.433014,317.983521 300.240112,321.693787 302.997559,325.425537 
	C304.057709,326.860229 305.377258,327.812073 307.169037,326.258820 
	C308.721130,324.913300 308.123688,323.676727 307.157196,322.362122 
	C305.191101,319.687958 303.316193,316.944641 301.293274,314.314789 
	C297.823242,309.803619 295.062408,305.766602 297.536560,299.142273 
	C300.006744,292.528534 295.875854,288.598694 288.722321,289.656433 
	C293.212830,292.946411 294.280640,296.458069 289.298065,300.750153 
M326.868896,360.695404 
	C326.659210,355.079498 330.210327,352.924286 335.162384,352.272614 
	C334.489655,349.802948 332.641998,348.605072 331.050812,348.670166 
	C325.538269,348.895813 323.306366,344.993652 320.590393,341.401855 
	C319.550415,340.026489 318.667236,337.198975 316.038330,339.102478 
	C313.316559,341.073151 315.420197,342.989380 316.661499,344.591461 
	C319.960327,348.849121 323.072449,353.064423 322.755737,358.919708 
	C322.656128,360.762054 323.820557,362.516479 325.803101,363.093872 
	C327.433228,363.568604 327.265472,362.384125 326.868896,360.695404 
z"/>
<path fill="#000000" opacity="1.000000" stroke="none" 
	d="
M327.592773,161.498291 
	C329.887268,164.787033 332.089722,167.715927 334.046844,170.800430 
	C335.954834,173.807419 338.293762,176.189194 341.327850,178.147003 
	C347.523468,182.144852 347.774811,186.061066 342.318329,190.814346 
	C340.740875,192.188492 339.646454,193.751175 338.879578,195.607269 
	C335.264282,204.357559 331.827850,213.185867 328.016937,221.849686 
	C325.685394,227.150345 325.962463,232.031830 328.674683,237.028717 
	C330.380707,240.171844 328.590790,243.076492 324.521576,243.471176 
	C318.226044,244.081802 311.898315,243.658417 305.635284,242.985733 
	C301.879333,242.582336 300.708374,239.326080 303.343414,236.506699 
	C306.531128,233.095947 306.020142,229.799316 304.480896,225.971008 
	C300.103943,215.084991 295.878510,204.137375 291.679474,193.181030 
	C290.796570,190.877380 288.711548,189.638718 287.436859,187.705017 
	C285.297028,184.458862 285.112335,181.754471 289.448853,180.363510 
	C291.139038,179.821381 292.442627,178.860626 293.302277,177.389847 
	C297.986389,169.375717 304.086304,162.276657 308.299591,153.945480 
	C309.688385,151.199326 312.110199,149.043167 312.883087,145.862900 
	C313.195343,144.578094 314.402557,143.651550 315.911804,143.653625 
	C317.686249,143.656052 318.715027,144.835892 319.083282,146.348679 
	C319.716278,148.949142 321.005707,150.791565 323.488098,151.989761 
	C325.021362,152.729813 326.029663,154.236664 325.750305,156.105606 
	C325.448639,158.123810 326.519653,159.613663 327.592773,161.498291 
M307.859924,212.427231 
	C306.277832,204.051270 306.414093,195.761124 310.466125,188.093002 
	C314.972076,179.565933 313.646179,170.897903 311.700317,161.847549 
	C307.853516,169.886551 297.632263,173.634506 298.606842,185.171219 
	C298.998077,189.802307 297.490509,194.767654 299.416962,199.547211 
	C302.240845,206.553070 305.861053,213.223740 307.939362,221.613968 
	C308.467560,220.057175 308.770203,219.616959 308.728027,219.212677 
	C308.521393,217.230606 308.223053,215.258072 307.859924,212.427231 
M319.964233,180.485977 
	C325.054230,190.940231 328.632782,201.655426 325.579742,213.671326 
	C327.066315,211.520889 327.836761,209.238739 328.914032,207.112000 
	C333.250763,198.550323 335.126984,189.309402 333.376129,180.073654 
	C332.036560,173.007385 325.306427,168.554764 321.591736,162.325150 
	C322.343506,168.469986 318.703156,173.874329 319.964233,180.485977 
z"/>
<path fill="#000000" opacity="1.000000" stroke="none" 
	d="
M212.130646,136.838043 
	C186.655701,108.369278 195.168610,61.564754 234.703003,46.732651 
	C267.438263,34.451374 301.132477,54.967342 308.549866,88.349113 
	C315.706757,120.558777 291.170380,150.690430 262.483887,154.660965 
	C242.940735,157.365967 225.929871,151.933884 212.130646,136.838043 
M235.594666,102.974075 
	C240.200439,101.079712 239.612915,104.353737 239.578766,107.008926 
	C239.463226,115.992073 239.294601,124.974625 239.208893,133.958008 
	C239.184708,136.491882 239.811234,138.748840 243.025055,138.637650 
	C245.664734,138.546310 245.677872,136.524628 245.559738,134.645386 
	C244.557037,118.695694 245.854401,102.749329 245.571136,86.803268 
	C245.525772,84.250168 246.030212,81.585655 244.741943,78.313560 
	C240.578796,82.416054 237.601822,86.725143 234.563171,90.978752 
	C230.744217,96.324684 229.665894,96.158890 226.526520,90.413811 
	C224.292267,86.325111 222.949509,81.590874 219.231827,78.289902 
	C206.757217,91.786522 213.418930,126.187828 229.144684,131.349701 
	C230.248062,129.613342 229.460083,128.109283 228.349457,126.872444 
	C223.649139,121.638100 221.088638,115.329529 219.526550,108.656013 
	C218.436798,104.000565 217.732162,99.149727 219.951736,93.716812 
	C225.198578,98.072266 225.901596,104.536308 230.115921,108.523232 
	C232.757614,107.546692 233.613113,105.209694 235.594666,102.974075 
M247.434494,63.664001 
	C249.585709,63.746891 251.736435,63.846966 253.888245,63.908958 
	C257.936676,64.025589 259.833405,65.885704 259.822144,70.140823 
	C259.767090,90.932961 259.821381,111.725998 260.002441,132.517288 
	C260.023071,134.883865 258.627258,139.119797 262.097595,139.185822 
	C266.495056,139.269531 264.932343,134.762390 264.967865,132.102829 
	C265.239197,111.804413 265.335022,91.503716 265.520264,71.204048 
	C265.559723,66.884514 267.038239,66.040207 271.171417,67.295029 
	C273.616516,68.037346 275.400696,70.515663 278.308685,70.200722 
	C279.438690,67.076515 277.573059,65.700249 275.559875,64.395721 
	C267.558777,59.211105 258.727539,57.474792 249.341324,58.169449 
	C245.804214,58.431221 244.243439,59.860863 247.434494,63.664001 
M282.651917,117.883064 
	C282.072296,118.891388 281.588867,119.972458 280.892731,120.892609 
	C279.525208,122.700165 279.688538,124.175354 281.458649,125.609032 
	C283.395691,127.177933 284.719696,126.392929 286.053101,124.738434 
	C297.051819,111.091118 297.947998,94.864738 290.080322,79.480659 
	C288.703735,76.789001 286.961151,76.995079 284.917389,78.837746 
	C282.910919,80.646790 283.330963,82.640800 284.165802,84.758095 
	C288.498871,95.747543 287.595428,106.550514 282.651917,117.883064 
z"/>
<path fill="#000000" opacity="1.000000" stroke="none" 
	d="
M195.211761,243.070801 
	C193.730392,242.923004 192.426758,243.169540 191.755600,240.723190 
	C206.058319,237.964844 214.532257,228.668213 218.039642,213.713760 
	C223.361343,223.600876 209.672043,240.086105 195.211761,243.070801 
z"/>
<path fill="#000000" opacity="1.000000" stroke="none" 
	d="
M271.069427,266.174438 
	C263.768066,266.782898 262.235199,272.009705 260.674957,277.482239 
	C259.544769,281.446320 256.449738,284.033386 252.423645,282.738495 
	C248.389587,281.441071 247.369720,277.848633 249.080200,273.754456 
	C250.102264,271.307983 248.875534,269.188507 247.728271,267.181335 
	C246.593414,265.195862 244.992142,264.604858 243.483231,266.785248 
	C241.896851,269.077606 240.346329,268.723999 238.536957,267.160065 
	C236.704437,265.576111 234.804199,264.035156 236.841583,261.379669 
	C237.926010,259.966217 238.379868,258.576538 237.796204,256.766022 
	C237.522247,255.916229 237.549316,254.402420 238.084824,253.945786 
	C243.821396,249.054001 247.040314,242.094849 252.307846,236.848511 
	C253.561005,235.600388 255.294479,235.519440 256.225372,236.982315 
	C259.009064,241.356812 264.963165,243.429230 265.312927,249.560715 
	C265.390259,250.916580 266.351746,251.663208 267.669220,251.651459 
	C272.299652,251.610184 272.038025,254.718918 273.077148,258.127228 
	C274.165619,261.697266 274.816803,263.929688 271.069427,266.174438 
M257.161469,265.036560 
	C255.805664,267.487000 256.212036,269.970337 256.947113,272.520081 
	C258.168793,268.905182 261.884033,266.319946 261.270325,261.715851 
	C259.307343,262.053467 258.437134,263.270050 257.161469,265.036560 
z"/>
<path fill="#000000" opacity="1.000000" stroke="none" 
	d="
M207.363449,458.025391 
	C207.415436,459.079315 207.419373,459.750641 207.527863,460.404602 
	C207.891449,462.596619 208.278259,465.033630 205.871964,466.122253 
	C203.095734,467.378235 203.299332,463.698547 201.318527,462.820831 
	C197.119995,464.690338 193.422424,463.728271 190.748749,459.669312 
	C188.907883,456.874725 190.992126,455.059570 193.161087,452.815796 
	C189.016190,452.466980 187.145035,453.747498 187.259964,457.565216 
	C187.324966,459.724579 187.276550,461.895416 187.126572,464.050446 
	C187.022369,465.547668 186.131775,466.565979 184.535294,466.501709 
	C183.139374,466.445465 182.428818,465.364868 182.405533,464.140930 
	C182.355133,461.492371 182.567902,458.839905 182.585083,456.188477 
	C182.595306,454.609924 182.261124,452.970978 180.269623,453.017548 
	C178.557724,453.057617 178.310608,454.581696 178.282211,455.967346 
	C178.241302,457.963531 178.287430,459.961334 178.286636,461.958466 
	C178.285980,463.607086 178.635818,465.567444 176.625198,466.234467 
	C174.547836,466.923737 173.762741,465.123596 172.909454,463.686462 
	C172.658386,463.263672 172.348282,462.875885 171.887711,462.218750 
	C166.136627,466.505829 161.992416,460.037567 156.795319,460.452728 
	C155.937424,461.159515 156.640747,461.585327 157.121201,461.996033 
	C158.410797,463.098511 160.097290,464.402710 158.535736,466.059296 
	C156.887619,467.807678 155.628998,465.800171 154.410233,464.801270 
	C153.509903,464.063354 152.650452,463.275513 151.749664,462.538147 
	C147.617630,459.155853 147.555161,458.486115 151.015930,454.222992 
	C150.906555,453.378906 150.246658,453.218994 149.584961,453.118103 
	C147.797684,452.845612 146.126602,452.218567 146.445450,450.077484 
	C146.743011,448.079468 148.570389,447.641083 150.294312,447.623688 
	C157.270355,447.553284 164.252304,447.382996 171.222672,447.580627 
	C184.846786,447.966888 198.455276,447.599548 212.068909,447.205322 
	C216.700592,447.071198 221.339417,447.184082 226.161926,447.184082 
	C228.624268,441.550934 228.851242,441.509735 233.717529,446.198486 
	C236.571152,448.948090 244.208572,447.918152 245.890717,444.454102 
	C247.143051,441.875183 249.377945,441.451019 251.744843,441.638153 
	C255.533524,441.937805 260.345306,449.433197 259.638306,453.125122 
	C259.144409,455.704041 259.340485,458.411774 259.182281,461.059204 
	C259.047302,463.317749 259.579102,466.564117 256.527313,466.662811 
	C253.313217,466.766754 253.951035,463.487793 253.742233,461.257233 
	C253.489182,458.553650 254.346649,455.716278 252.867874,452.448425 
	C250.145203,455.713409 250.776108,459.019531 250.795425,462.124420 
	C250.819687,466.017639 249.481628,467.114563 246.206009,465.279724 
	C244.829315,464.508606 243.479980,464.244171 242.020966,463.937042 
	C234.851791,462.427856 233.559677,459.608826 237.010788,452.633484 
	C234.044235,452.430176 232.485855,453.574005 232.427368,456.475677 
	C232.383850,458.635895 232.448105,460.799255 232.505249,462.960144 
	C232.547562,464.560486 232.431915,466.142517 230.412048,466.282898 
	C228.508621,466.415222 227.233902,465.390961 226.920639,463.454865 
	C226.686432,462.007568 226.597885,460.536713 226.385376,458.513733 
	C223.078323,460.551392 220.047058,459.697632 216.911163,458.294037 
	C216.228012,461.336884 218.319351,462.086609 219.770615,463.267120 
	C220.927567,464.208221 222.455811,465.304016 221.145294,466.919312 
	C219.881317,468.477234 218.415100,467.279205 217.175278,466.467804 
	C210.745575,462.259918 209.703964,458.285339 213.682465,453.254211 
	C208.903656,452.467682 208.348190,452.852753 207.363449,458.025391 
z"/>
<path fill="#000000" opacity="1.000000" stroke="none" 
	d="
M283.034180,448.316650 
	C285.524261,450.455780 285.293701,453.772430 287.371399,455.318298 
	C287.634216,457.864868 284.733032,457.573700 284.540680,459.415710 
	C287.916382,459.059814 289.545654,457.590363 289.682922,455.176056 
	C289.838531,452.440216 286.076141,451.557770 286.949310,447.660431 
	C295.406219,448.763580 303.906342,446.245209 312.857208,447.811157 
	C313.299042,444.534760 314.303406,441.805237 317.543335,441.275604 
	C320.715149,440.757111 322.370544,443.072174 324.520416,445.078522 
	C327.861755,448.196777 329.616547,450.776642 327.408966,455.498260 
	C326.407410,457.640381 327.535156,460.727844 327.484650,463.382416 
	C327.450439,465.178986 326.588531,466.733582 324.566925,466.810028 
	C322.733643,466.879303 322.174988,465.342010 321.701813,463.858765 
	C320.965454,461.550934 321.487030,459.235474 321.579742,456.920410 
	C321.682037,454.367340 321.059357,451.837189 318.175446,451.746948 
	C315.218506,451.654449 315.297150,454.397766 315.237396,456.567719 
	C315.173279,458.895782 315.261597,461.229156 315.158752,463.554657 
	C315.099304,464.899384 314.814362,466.332153 313.135193,466.558411 
	C311.726562,466.748199 310.890747,465.674500 310.664032,464.543152 
	C309.916199,460.811218 308.243286,459.540192 304.386902,461.062042 
	C302.593567,461.769745 300.667358,460.510742 300.458160,458.292267 
	C300.243011,456.010406 301.869659,455.171417 303.903870,454.857025 
	C305.449158,454.618225 307.199127,455.619232 309.065338,453.645477 
	C304.983002,453.144653 301.352020,452.558624 297.698059,452.308044 
	C295.764954,452.175476 294.627808,453.551910 294.562317,455.470184 
	C294.494781,457.449249 294.484924,459.463776 294.781067,461.412445 
	C295.089111,463.439728 294.799469,465.164368 292.978729,466.155396 
	C291.149506,467.151031 290.623566,464.987823 289.492218,464.462036 
	C286.772430,463.198029 283.472626,463.719421 280.767609,461.843872 
	C277.046906,459.264069 278.373932,454.945770 277.033478,451.558075 
	C276.311340,449.732971 278.527863,448.418427 280.363617,447.886383 
	C281.080688,447.678528 281.954803,448.012299 283.034180,448.316650 
z"/>
<path fill="#000000" opacity="1.000000" stroke="none" 
	d="
M356.372864,466.461365 
	C353.340332,469.630341 345.926208,467.191925 345.447662,462.650177 
	C344.893250,457.388672 343.234619,452.433075 342.289032,447.307190 
	C341.453369,442.777130 344.616638,441.251007 346.896362,439.461121 
	C349.176514,437.670959 350.989227,440.035980 351.536224,442.217896 
	C352.478943,445.978516 354.376740,447.780304 358.457367,447.870178 
	C361.674286,447.941040 362.539032,449.865845 360.134705,452.469757 
	C359.019897,453.677032 357.595184,454.627258 356.924805,456.609802 
	C360.741608,459.793060 360.589478,463.067352 356.372864,466.461365 
z"/>
</svg>